<svg xmlns="http://www.w3.org/2000/svg" width="1200" height="873"
viewBox="0 0 1200 873">
<rect width="100%" height="100%" rx="18" fill="#f8fafc"/>
<text x="600" y="34" text-anchor="middle" font-family="system-ui" font-size="23"
font-weight="700" fill="#172033">Qué influyó en ensemble · Mundial 2026</text>
<text x="600" y="61" text-anchor="middle" font-family="system-ui" font-size="14"
fill="#657084">Importancia por permutación: aumento de log loss (más alto = más útil)</text>
<text x="70" y="87" font-family="system-ui" font-size="16" font-weight="700"
fill="#172033">Familias de variables</text>
<text x="370" y="113" text-anchor="end" font-family="system-ui" font-size="14" fill="#172033">Experiencia</text><rect x="390" y="95" width="720.0" height="24" rx="6" fill="#2563eb"/><text x="1119.0" y="112" font-family="system-ui" font-size="13" fill="#657084">0.0403</text><text x="370" y="149" text-anchor="end" font-family="system-ui" font-size="14" fill="#172033">Contexto del partido</text><rect x="390" y="131" width="403.7" height="24" rx="6" fill="#2563eb"/><text x="802.7" y="148" font-family="system-ui" font-size="13" fill="#657084">0.0226</text><text x="370" y="185" text-anchor="end" font-family="system-ui" font-size="14" fill="#172033">Forma y resultados</text><rect x="390" y="167" width="391.0" height="24" rx="6" fill="#2563eb"/><text x="790.0" y="184" font-family="system-ui" font-size="13" fill="#657084">0.0219</text><text x="370" y="221" text-anchor="end" font-family="system-ui" font-size="14" fill="#172033">Goles recientes</text><rect x="390" y="203" width="206.8" height="24" rx="6" fill="#2563eb"/><text x="605.8" y="220" font-family="system-ui" font-size="13" fill="#657084">0.0116</text><text x="370" y="257" text-anchor="end" font-family="system-ui" font-size="14" fill="#172033">Descanso</text><rect x="390" y="239" width="136.4" height="24" rx="6" fill="#2563eb"/><text x="535.4" y="256" font-family="system-ui" font-size="13" fill="#657084">0.0076</text><text x="370" y="293" text-anchor="end" font-family="system-ui" font-size="14" fill="#172033">Elo</text><rect x="390" y="275" width="49.6" height="24" rx="6" fill="#2563eb"/><text x="448.6" y="292" font-family="system-ui" font-size="13" fill="#657084">0.0028</text><text x="370" y="329" text-anchor="end" font-family="system-ui" font-size="14" fill="#172033">Ranking FIFA</text><rect x="390" y="311" width="2.9" height="24" rx="6" fill="#2563eb"/><text x="401.9" y="328" font-family="system-ui" font-size="13" fill="#657084">0.0002</text><text x="370" y="365" text-anchor="end" font-family="system-ui" font-size="14" fill="#172033">Enfrentamientos directos</text><rect x="390" y="347" width="0.0" height="24" rx="6" fill="#cbd5e1"/><text x="399.0" y="364" font-family="system-ui" font-size="13" fill="#657084">-0.0022</text>
<text x="70" y="438" font-family="system-ui" font-size="16"
font-weight="700" fill="#172033">Variables individuales con aporte positivo</text>
<text x="370" y="480" text-anchor="end" font-family="ui-monospace" font-size="12" fill="#172033">away_confederation_uefa</text><rect x="390" y="463" width="166.4" height="22" rx="5" fill="#16a34a"/><text x="565.4" y="479" font-family="system-ui" font-size="12" fill="#657084">0.0093</text><text x="370" y="514" text-anchor="end" font-family="ui-monospace" font-size="12" fill="#172033">away_matches</text><rect x="390" y="497" width="131.6" height="22" rx="5" fill="#16a34a"/><text x="530.6" y="513" font-family="system-ui" font-size="12" fill="#657084">0.0074</text><text x="370" y="548" text-anchor="end" font-family="ui-monospace" font-size="12" fill="#172033">home_is_host</text><rect x="390" y="531" width="130.9" height="22" rx="5" fill="#16a34a"/><text x="529.9" y="547" font-family="system-ui" font-size="12" fill="#657084">0.0073</text><text x="370" y="582" text-anchor="end" font-family="ui-monospace" font-size="12" fill="#172033">away_confederation_concacaf</text><rect x="390" y="565" width="124.3" height="22" rx="5" fill="#16a34a"/><text x="523.3" y="581" font-family="system-ui" font-size="12" fill="#657084">0.0070</text><text x="370" y="616" text-anchor="end" font-family="ui-monospace" font-size="12" fill="#172033">away_confederation_afc</text><rect x="390" y="599" width="110.8" height="22" rx="5" fill="#16a34a"/><text x="509.8" y="615" font-family="system-ui" font-size="12" fill="#657084">0.0062</text><text x="370" y="650" text-anchor="end" font-family="ui-monospace" font-size="12" fill="#172033">away_knockout_experience</text><rect x="390" y="633" width="102.4" height="22" rx="5" fill="#16a34a"/><text x="501.4" y="649" font-family="system-ui" font-size="12" fill="#657084">0.0057</text><text x="370" y="684" text-anchor="end" font-family="ui-monospace" font-size="12" fill="#172033">difference_win_rate</text><rect x="390" y="667" width="93.3" height="22" rx="5" fill="#16a34a"/><text x="492.3" y="683" font-family="system-ui" font-size="12" fill="#657084">0.0052</text><text x="370" y="718" text-anchor="end" font-family="ui-monospace" font-size="12" fill="#172033">home_win_rate</text><rect x="390" y="701" width="74.3" height="22" rx="5" fill="#16a34a"/><text x="473.3" y="717" font-family="system-ui" font-size="12" fill="#657084">0.0042</text><text x="370" y="752" text-anchor="end" font-family="ui-monospace" font-size="12" fill="#172033">difference_matches</text><rect x="390" y="735" width="70.9" height="22" rx="5" fill="#16a34a"/><text x="469.9" y="751" font-family="system-ui" font-size="12" fill="#657084">0.0040</text><text x="370" y="786" text-anchor="end" font-family="ui-monospace" font-size="12" fill="#172033">difference_loss_rate</text><rect x="390" y="769" width="69.7" height="22" rx="5" fill="#16a34a"/><text x="468.7" y="785" font-family="system-ui" font-size="12" fill="#657084">0.0039</text>
<text x="600" y="849" text-anchor="middle" font-family="system-ui"
font-size="12" fill="#657084">Modelo entrenado con 964 partidos anteriores · Log loss base 1.0031</text>
</svg>
